<svg xmlns="http://www.w3.org/2000/svg" width="125.409" height="58.509" viewBox="0 0 125.409 58.509">
  <g id="Group_8034" data-name="Group 8034" transform="translate(-178 -18)">
    <path id="Path_10760" data-name="Path 10760" d="M7,0A7,7,0,1,1,0,7,7,7,0,0,1,7,0Z" transform="translate(188.409 50.159)" fill="#1d1d1f"/>
    <g id="Group_7876" data-name="Group 7876" transform="translate(178 18)">
      <path id="Path_10510" data-name="Path 10510" d="M493.947,399.5a.771.771,0,0,1-.717-.512l-2.767-8.61H477.036l-2.665,8.558a.754.754,0,0,1-.717.564h-6.867a.36.36,0,0,1-.359-.512l12.094-34.849a.839.839,0,0,1,.769-.513h9.379a.9.9,0,0,1,.769.513l11.787,34.849a.361.361,0,0,1-.359.512Zm-5.432-15.323-4.92-15.323-4.664,15.323Z" transform="translate(-466.396 -349.701)" fill="#1d1d1f"/>
      <path id="Path_10511" data-name="Path 10511" d="M603.05,399.5a.5.5,0,0,1-.513-.564l.1-2.511a9.673,9.673,0,0,1-7.79,3.587c-7.482,0-11.428-5.945-11.428-13.632,0-7.636,4.408-13.785,11.582-13.785a9.4,9.4,0,0,1,7.585,3.28l-.1-11.685a.569.569,0,0,1,.564-.564h6.662a.569.569,0,0,1,.564.564l-.154,17.373.154,17.373a.569.569,0,0,1-.564.564ZM597,394.937c3.741,0,5.74-2.819,5.791-8.4.051-5.689-1.947-8.815-5.637-8.866-3.895-.1-5.894,2.87-5.894,8.353C591.263,391.964,593.313,394.988,597,394.937Z" transform="translate(-549.209 -349.701)" fill="#1d1d1f"/>
      <path id="Path_10512" data-name="Path 10512" d="M694.235,430.645a.9.9,0,0,1-.769.513h-6.2a.379.379,0,0,1-.359-.513l2.716-7.944-10.557-26.136a.379.379,0,0,1,.359-.513h7.533a.84.84,0,0,1,.769.513l5.688,16.4,4.715-16.348a.822.822,0,0,1,.717-.564h6.662a.361.361,0,0,1,.359.513Z" transform="translate(-616.871 -372.649)" fill="#1d1d1f"/>
      <path id="Path_10513" data-name="Path 10513" d="M776.1,382.78a.631.631,0,0,1-.564-.672l.256-20.718-.256-20.718A.631.631,0,0,1,776.1,340h6.56a.631.631,0,0,1,.564.672l-.256,20.718.256,20.718a.631.631,0,0,1-.564.672Z" transform="translate(-685.159 -332.983)" fill="#1d1d1f"/>
      <path id="Path_10514" data-name="Path 10514" d="M814.314,365.8c-.307,0-.564-.355-.564-.783l.256-24.116-.256-24.116c0-.427.256-.783.564-.783h6.56c.308,0,.564.356.564.783l-.256,24.116.256,24.116c0,.427-.256.783-.564.783Z" transform="translate(-712.199 -316)" fill="#1d1d1f"/>
    </g>
    <path id="Path_10761" data-name="Path 10761" d="M7,0A7,7,0,1,1,0,7,7,7,0,0,1,7,0Z" transform="translate(289.409 54.159)" fill="#1d1d1f"/>
  </g>
</svg>
